<?xml version="1.0" encoding="UTF-8" standalone="no"?>
<!-- Generator: Adobe Illustrator 24.0.1, SVG Export Plug-In . SVG Version: 6.00 Build 0)  -->
<svg id="artwork" style="enable-background:new 0 0 350 200" xmlns="http://www.w3.org/2000/svg" xml:space="preserve" viewBox="0 0 350 200" version="1.1" y="0px" x="0px" xmlns:xlink="http://www.w3.org/1999/xlink">
<style type="text/css">
	.st0{fill:#999999;}
	.st1{fill:#666666;}
	.st2{fill:#E95420;}
	.st3{fill:#FFFFFF;}
</style>
	<path class="st0" d="m287.5 51.5h-17c-0.8 0-1.5-0.7-1.5-1.5v-48h3v46.5h15.5v3z"/>
	<rect y="93.5" x="297.5" height="3" class="st0" width="41"/>
	<path class="st0" d="m277 197h-3v-37c0-0.4 0.2-0.8 0.4-1.1l19.2-19.2 2.1 2.1-18.7 18.8v36.4z"/>
	<path class="st1" d="m217 159.5h-83c-9.9 0-18-8.1-18-18v-83c0-9.9 8.1-18 18-18h83c9.9 0 18 8.1 18 18v83c0 9.9-8.1 18-18 18zm-83-115c-7.7 0-14 6.3-14 14v83c0 7.7 6.3 14 14 14h83c7.7 0 14-6.3 14-14v-83c0-7.7-6.3-14-14-14h-83z"/>
	<path class="st1" d="m175.5 44.5c-1.1 0-2-0.9-2-2v-25c0-1.1 0.9-2 2-2s2 0.9 2 2v25c0 1.1-0.9 2-2 2z"/>
	<path class="st1" d="m140.5 44.5c-1.1 0-2-0.9-2-2v-25c0-1.1 0.9-2 2-2s2 0.9 2 2v25c0 1.1-0.9 2-2 2z"/>
	<path class="st0" d="m57.8 60.9l-1.9-2.3 23.1-19.3v-37.3h3v38c0 0.4-0.2 0.9-0.5 1.2l-23.7 19.7z"/>
	<path class="st0" d="m57 147h-3v-35.5h-43.5v-3h45c0.8 0 1.5 0.7 1.5 1.5v37z"/>
	<path class="st1" d="m210.5 44.5c-1.1 0-2-0.9-2-2v-25c0-1.1 0.9-2 2-2s2 0.9 2 2v25c0 1.1-0.9 2-2 2z"/>
	<path class="st1" d="m175.5 184.5c-1.1 0-2-0.9-2-2v-25c0-1.1 0.9-2 2-2s2 0.9 2 2v25c0 1.1-0.9 2-2 2z"/>
	<path class="st1" d="m140.5 184.5c-1.1 0-2-0.9-2-2v-25c0-1.1 0.9-2 2-2s2 0.9 2 2v25c0 1.1-0.9 2-2 2z"/>
	<path class="st1" d="m210.5 184.5c-1.1 0-2-0.9-2-2v-25c0-1.1 0.9-2 2-2s2 0.9 2 2v25c0 1.1-0.9 2-2 2z"/>
	<path class="st1" d="m118 102h-25c-1.1 0-2-0.9-2-2s0.9-2 2-2h25c1.1 0 2 0.9 2 2s-0.9 2-2 2z"/>
	<path class="st1" d="m118 137h-25c-1.1 0-2-0.9-2-2s0.9-2 2-2h25c1.1 0 2 0.9 2 2s-0.9 2-2 2z"/>
	<path class="st1" d="m118 67h-25c-1.1 0-2-0.9-2-2s0.9-2 2-2h25c1.1 0 2 0.9 2 2s-0.9 2-2 2z"/>
	<path class="st1" d="m258 102h-25c-1.1 0-2-0.9-2-2s0.9-2 2-2h25c1.1 0 2 0.9 2 2s-0.9 2-2 2z"/>
	<path class="st1" d="m258 137h-25c-1.1 0-2-0.9-2-2s0.9-2 2-2h25c1.1 0 2 0.9 2 2s-0.9 2-2 2z"/>
	<path class="st1" d="m258 67h-25c-1.1 0-2-0.9-2-2s0.9-2 2-2h25c1.1 0 2 0.9 2 2s-0.9 2-2 2z"/>
	<path class="st1" d="m324.5 200h-298c-9.4 0-17-7.7-17-17.1v-165.8c0-9.4 7.6-17.1 17-17.1h298c9.4 0 17 7.7 17 17.1v165.8c0 9.4-7.6 17.1-17 17.1zm-298-196c-7.2 0-13 5.9-13 13.1v165.8c0 7.2 5.8 13.1 13 13.1h298c7.2 0 13-5.9 13-13.1v-165.8c0-7.2-5.8-13.1-13-13.1h-298z"/>
	<path class="st0" d="m50.5 74c-5 0-9-4-9-9s4-9 9-9 9 4 9 9-4 9-9 9zm0-15c-3.3 0-6 2.7-6 6s2.7 6 6 6 6-2.7 6-6c0-3.3-2.7-6-6-6z"/>
	<path class="st0" d="m295.5 59c-5 0-9-4-9-9s4-9 9-9 9 4 9 9-4 9-9 9zm0-15c-3.3 0-6 2.7-6 6s2.7 6 6 6 6-2.7 6-6-2.7-6-6-6z"/>
	<path class="st0" d="m290.5 104c-5 0-9-4-9-9s4-9 9-9 9 4 9 9c0 5-4 9-9 9zm0-15c-3.3 0-6 2.7-6 6s2.7 6 6 6 6-2.7 6-6-2.7-6-6-6z"/>
	<path class="st0" d="m300.5 144c-5 0-9-4-9-9s4-9 9-9 9 4 9 9-4 9-9 9zm0-15c-3.3 0-6 2.7-6 6s2.7 6 6 6 6-2.7 6-6-2.7-6-6-6z"/>
	<circle cy="15" cx="25.5" r="6" class="st1"/>
	<circle cy="185" cx="25.5" r="6" class="st1"/>
	<circle cy="15" cx="325.5" r="6" class="st1"/>
	<circle cy="185" cx="325.5" r="6" class="st1"/>
	<path class="st0" d="m55.5 164c-5 0-9-4-9-9s4-9 9-9 9 4 9 9-4 9-9 9zm0-15c-3.3 0-6 2.7-6 6s2.7 6 6 6 6-2.7 6-6-2.7-6-6-6z"/>
		<circle cy="100" cx="175.5" r="42.5" class="st2"/>
		<path class="st3" d="m153.4 100c0 3-2.4 5.5-5.5 5.5-3 0-5.5-2.4-5.5-5.5 0-3 2.4-5.5 5.5-5.5s5.5 2.5 5.5 5.5zm31.1 26.6c1.5 2.6 4.8 3.5 7.5 2 2.6-1.5 3.5-4.9 2-7.5s-4.8-3.5-7.5-2c-2.6 1.5-3.5 4.9-2 7.5zm9.5-47.7c1.5-2.6 0.6-6-2-7.5s-6-0.6-7.5 2-0.6 6 2 7.5 6 0.6 7.5-2zm-18.5 5.5c8.1 0 14.8 6.2 15.5 14.2l7.9-0.1c-0.4-5.9-2.9-11.2-6.9-15.2-2.1 0.8-4.5 0.7-6.6-0.5s-3.4-3.3-3.8-5.5c-2-0.5-4-0.8-6.2-0.8-3.7 0-7.3 0.9-10.4 2.4l3.8 6.9c2.1-0.9 4.4-1.4 6.7-1.4zm-15.6 15.6c0-5.3 2.6-9.9 6.6-12.8l-4.1-6.8c-4.7 3.1-8.2 7.9-9.7 13.5 1.7 1.4 2.9 3.6 2.9 6s-1.1 4.6-2.9 6c1.5 5.6 5 10.4 9.7 13.6l4.1-6.8c-4-2.8-6.6-7.4-6.6-12.7zm15.6 15.6c-2.3 0-4.6-0.5-6.6-1.4l-3.8 6.9c3.1 1.6 6.7 2.4 10.4 2.4 2.1 0 4.2-0.3 6.2-0.8 0.3-2.2 1.7-4.3 3.8-5.5s4.5-1.3 6.6-0.5c4-3.9 6.5-9.2 6.9-15.2l-7.9-0.1c-0.8 7.9-7.5 14.2-15.6 14.2z"/>
</svg>
